<?xml version="1.0" encoding="iso-8859-1"?>
<!-- Generator: Adobe Illustrator 19.0.0, SVG Export Plug-In . SVG Version: 6.00 Build 0)  -->
<svg version="1.1" id="Capa_1" xmlns="http://www.w3.org/2000/svg" xmlns:xlink="http://www.w3.org/1999/xlink" x="0px" y="0px"
	 viewBox="0 0 512 512" style="enable-background:new 0 0 512 512;" xml:space="preserve">
<g>
	<g>
		<g>
			<path d="M328.324,353.845c-0.524-2.602-2.962-4.363-5.597-4.043l-31.391,3.919c-11.121,1.493-21.643-5.436-24.664-16.243
				l-1.139-3.919c-7.429-25.15-10.612-51.362-9.419-77.559c-1.191-26.191,1.992-52.397,9.419-77.542l1.139-3.919
				c3.018-10.809,13.542-17.74,24.664-16.243l31.391,3.919c2.633,0.311,5.065-1.446,5.597-4.043l15.731-78.565
				c0.528-2.657-1.123-5.26-3.752-5.914l-31.541-7.892c-2.136-0.537-4.33-0.81-6.532-0.812c-4.226-0.022-8.386,1.058-12.067,3.134
				C248.205,91.983,225.103,158.711,225.103,256s23.102,164.017,65.059,187.904c5.668,3.145,12.333,3.977,18.6,2.322l31.541-7.892
				c2.63-0.659,4.28-3.264,3.752-5.923L328.324,353.845z"/>
			<path d="M436.966,0H119.172c-9.751,0-17.655,7.904-17.655,17.655v35.31h-35.31c-4.875,0-8.828,3.952-8.828,8.828
				c0,4.875,3.952,8.828,8.828,8.828h35.31v79.448h-35.31c-4.875,0-8.828,3.952-8.828,8.828c0,4.875,3.952,8.828,8.828,8.828h35.31
				v79.448h-35.31c-4.875,0-8.828,3.952-8.828,8.828s3.952,8.828,8.828,8.828h35.31v79.448h-35.31c-4.875,0-8.828,3.952-8.828,8.828
				c0,4.875,3.952,8.828,8.828,8.828h35.31v79.448h-35.31c-4.875,0-8.828,3.952-8.828,8.828c0,4.875,3.952,8.828,8.828,8.828h35.31
				v35.31c0,9.751,7.904,17.655,17.655,17.655h317.793c9.751,0,17.655-7.904,17.655-17.655V17.655
				C454.621,7.904,446.716,0,436.966,0z M143.095,456.474c-0.859,0.779-1.844,1.406-2.913,1.854
				c-1.061,0.452-2.201,0.692-3.354,0.706c-0.592-0.015-1.182-0.074-1.766-0.177c-0.553-0.096-1.089-0.275-1.589-0.53
				c-0.563-0.193-1.097-0.46-1.589-0.794l-1.324-1.059c-1.612-1.693-2.526-3.931-2.56-6.268c0.014-1.154,0.254-2.293,0.706-3.354
				c0.448-1.069,1.075-2.055,1.854-2.913c2.538-2.505,6.335-3.236,9.622-1.854c1.08,0.427,2.069,1.056,2.913,1.854
				c0.779,0.859,1.406,1.844,1.854,2.913c0.495,1.047,0.737,2.196,0.706,3.354C145.621,452.544,144.707,454.782,143.095,456.474z
				 M143.095,359.38v-0.009c-0.859,0.779-1.844,1.406-2.913,1.854c-1.061,0.452-2.201,0.692-3.354,0.706
				c-0.592-0.015-1.182-0.074-1.766-0.177c-0.553-0.096-1.089-0.275-1.589-0.53c-0.563-0.193-1.097-0.46-1.589-0.794l-1.324-1.059
				c-1.612-1.693-2.526-3.931-2.56-6.268c0.014-1.154,0.254-2.293,0.706-3.354c0.448-1.069,1.075-2.055,1.854-2.913
				c2.538-2.505,6.335-3.236,9.622-1.854c1.08,0.427,2.069,1.056,2.913,1.854c0.779,0.859,1.406,1.844,1.854,2.913
				c0.495,1.047,0.737,2.196,0.706,3.354C145.623,355.443,144.709,357.685,143.095,359.38z M143.095,262.285v-0.018
				c-0.861,0.776-1.845,1.403-2.913,1.854c-1.062,0.449-2.201,0.689-3.354,0.706c-0.592-0.015-1.182-0.074-1.766-0.177
				c-0.551-0.104-1.086-0.282-1.589-0.53c-0.563-0.196-1.097-0.466-1.589-0.803l-1.324-1.05c-1.612-1.693-2.526-3.931-2.56-6.268
				c0.013-1.157,0.253-2.299,0.706-3.363c0.448-1.067,1.075-2.049,1.854-2.904c2.536-2.508,6.333-3.243,9.622-1.863
				c1.081,0.43,2.069,1.062,2.913,1.863c0.779,0.855,1.406,1.838,1.854,2.904c0.495,1.051,0.736,2.203,0.706,3.363
				C145.625,258.343,144.711,260.588,143.095,262.285z M143.095,165.191v-0.026c-0.863,0.773-1.847,1.399-2.913,1.854
				c-1.062,0.449-2.201,0.689-3.354,0.706c-0.592-0.019-1.182-0.078-1.766-0.177c-0.551-0.104-1.086-0.282-1.589-0.53
				c-0.563-0.196-1.097-0.466-1.589-0.803l-1.324-1.05c-1.611-1.693-2.525-3.931-2.56-6.268c0.013-1.157,0.253-2.299,0.706-3.363
				c0.448-1.067,1.075-2.049,1.854-2.904c2.536-2.508,6.333-3.243,9.622-1.863c1.081,0.43,2.069,1.062,2.913,1.863
				c0.779,0.855,1.406,1.838,1.854,2.904c0.496,1.05,0.737,2.202,0.706,3.363C145.627,161.242,144.712,163.491,143.095,165.191z
				 M143.095,68.096v-0.035c-0.863,0.773-1.847,1.399-2.913,1.854c-1.062,0.449-2.201,0.689-3.354,0.706
				c-0.592-0.019-1.182-0.078-1.766-0.177c-0.551-0.104-1.086-0.282-1.589-0.53c-0.563-0.196-1.097-0.466-1.589-0.803l-1.324-1.05
				c-1.611-1.693-2.525-3.931-2.56-6.268c0.013-1.157,0.253-2.299,0.706-3.363c0.448-1.067,1.075-2.049,1.854-2.904
				c2.536-2.508,6.333-3.243,9.622-1.863c1.082,0.426,2.072,1.059,2.913,1.863c0.779,0.855,1.406,1.838,1.854,2.904
				c0.496,1.05,0.737,2.202,0.706,3.363C145.629,64.142,144.714,66.394,143.095,68.096z M344.602,455.389l-31.541,7.883
				c-3.539,0.892-7.173,1.345-10.823,1.351c-7.286,0.019-14.451-1.861-20.789-5.455c-33.766-19.138-74.002-69.994-74.002-203.167
				s40.236-184.029,73.975-203.246c9.613-5.394,20.939-6.865,31.612-4.105l31.541,7.883c11.763,2.937,19.145,14.594,16.772,26.483
				l-8.554,42.761l-7.177,35.849c-2.352,11.663-13.288,19.549-25.097,18.097l-31.391-3.919c-2.451-0.339-4.782,1.161-5.491,3.531
				l-1.183,4.078c-6.911,23.545-9.847,48.078-8.686,72.589c-1.148,24.501,1.797,49.022,8.713,72.554l1.183,4.078
				c0.718,2.363,3.043,3.858,5.491,3.531l31.391-3.919c11.809-1.453,22.745,6.433,25.097,18.096l15.731,78.566
				C363.748,440.795,356.365,452.452,344.602,455.389z"/>
		</g>
	</g>
</g>
<g>
</g>
<g>
</g>
<g>
</g>
<g>
</g>
<g>
</g>
<g>
</g>
<g>
</g>
<g>
</g>
<g>
</g>
<g>
</g>
<g>
</g>
<g>
</g>
<g>
</g>
<g>
</g>
<g>
</g>
</svg>
