<svg height="512" viewBox="0 0 56 56" width="512" xmlns="http://www.w3.org/2000/svg"><g id="041---Male-User-Add-Account"><path id="Shape" d="m45 41v-4h-2v4c0 1.1045695-.8954305 2-2 2h-4v2h4c1.1045695 0 2 .8954305 2 2v4h2v-4c0-1.1045695.8954305-2 2-2h4v-2h-4c-1.1045695 0-2-.8954305-2-2z"/><path id="Shape" d="m30 44.34c-1.8212771-.7948702-2.9989762-2.5928241-3-4.58v-2c-.0274461-1.4387641.5841257-2.815716 1.67-3.76 2.2480159-1.8695617 3.4822449-4.6901271 3.33-7.61-.0734579-.3760054.0175388-.7654711.25-1.07.36-.39.67-.32 1.76-.32 1.1045695 0 2-.8954305 2-2v-3c0-1.1045695-.8954305-2-2-2-.5522847 0-1-.4477153-1-1s.4477153-1 1-1c.2600268-.0019502.5190972.0316953.77.1.93-5-1.23-8.08-3.68-8.73-.73-.18-.72-.85-.87-1.25-1.18-3.74-5.5-6.12-11.03-6.12-8 0-11.68 8.12-9.68 16.05.15876049-.0269555.31909241-.0436567.48-.05.5522847 0 1 .4477153 1 1s-.4477153 1-1 1c-1.1045695 0-2 .8954305-2 2v3c0 1.1045695.8954305 2 2 2 1 0 1.38-.08 1.76.32.228957.3061078.3162811.6954276.24 1.07-.1514936 2.9175889 1.0783007 5.7364848 3.32 7.61 1.0918814.9406934 1.7077424 2.3190491 1.68 3.76v2c.0015693 2.0799799-1.2847075 3.9436875-3.23 4.68l-9.77 3.71c-2.40767327.9441526-3.99377738 3.2638299-4 5.85v2h36.83c-4.1258794-2.457926-6.7039409-6.8591262-6.83-11.66z"/><path id="Shape" d="m44 32c-6.627417 0-12 5.372583-12 12s5.372583 12 12 12 12-5.372583 12-12-5.372583-12-12-12zm7 15h-4v4c0 1.1045695-.8954305 2-2 2h-2c-1.1045695 0-2-.8954305-2-2v-4h-4c-1.1045695 0-2-.8954305-2-2v-2c0-1.1045695.8954305-2 2-2h4v-4c0-1.1045695.8954305-2 2-2h2c1.1045695 0 2 .8954305 2 2v4h4c1.1045695 0 2 .8954305 2 2v2c0 1.1045695-.8954305 2-2 2z"/></g></svg>